<mxfile host="www.draw.io" modified="2019-11-20T07:41:26.660Z" agent="Mozilla/5.0 (Macintosh; Intel Mac OS X 10_15_1) AppleWebKit/537.36 (KHTML, like Gecko) Chrome/78.0.3904.97 Safari/537.36" etag="BNplre5oZJyrUskVMePa" version="12.2.7" type="github" pages="1">
  <diagram name="Page-1" id="13e1069c-82ec-6db2-03f1-153e76fe0fe0">
    <mxGraphModel dx="1077" dy="629" grid="0" gridSize="10" guides="1" tooltips="1" connect="1" arrows="1" fold="1" page="1" pageScale="1" pageWidth="3300" pageHeight="2339" background="#ffffff" math="0" shadow="0">
      <root>
        <mxCell id="0"/>
        <mxCell id="1" parent="0"/>
        <mxCell id="7baba1c4bc27f4b0-2" value="iouui" style="shape=umlLifeline;perimeter=lifelinePerimeter;whiteSpace=wrap;html=1;container=1;collapsible=0;recursiveResize=0;outlineConnect=0;rounded=1;shadow=0;comic=0;labelBackgroundColor=none;strokeWidth=1;fontFamily=Verdana;fontSize=12;align=center;fillColor=#dae8fc;strokeColor=#6c8ebf;" parent="1" vertex="1">
          <mxGeometry x="240" y="80" width="100" height="760" as="geometry"/>
        </mxCell>
        <mxCell id="7baba1c4bc27f4b0-10" value="" style="html=1;points=[];perimeter=orthogonalPerimeter;rounded=0;shadow=0;comic=0;labelBackgroundColor=none;strokeWidth=1;fontFamily=Verdana;fontSize=12;align=center;" parent="7baba1c4bc27f4b0-2" vertex="1">
          <mxGeometry x="45" y="99" width="10" height="100" as="geometry"/>
        </mxCell>
        <mxCell id="FsOfHg_qTyJkPoFwxaCK-15" value="" style="html=1;points=[];perimeter=orthogonalPerimeter;rounded=0;shadow=0;comic=0;labelBackgroundColor=none;strokeWidth=1;fontFamily=Verdana;fontSize=12;align=center;" parent="7baba1c4bc27f4b0-2" vertex="1">
          <mxGeometry x="50" y="267" width="10" height="50" as="geometry"/>
        </mxCell>
        <mxCell id="7baba1c4bc27f4b0-3" value="server" style="shape=umlLifeline;perimeter=lifelinePerimeter;whiteSpace=wrap;html=1;container=1;collapsible=0;recursiveResize=0;outlineConnect=0;rounded=1;shadow=0;comic=0;labelBackgroundColor=none;strokeWidth=1;fontFamily=Verdana;fontSize=12;align=center;fillColor=#dae8fc;strokeColor=#6c8ebf;" parent="1" vertex="1">
          <mxGeometry x="400" y="80" width="100" height="760" as="geometry"/>
        </mxCell>
        <mxCell id="FsOfHg_qTyJkPoFwxaCK-18" value="" style="html=1;points=[];perimeter=orthogonalPerimeter;rounded=0;shadow=0;comic=0;labelBackgroundColor=none;strokeWidth=1;fontFamily=Verdana;fontSize=12;align=center;" parent="7baba1c4bc27f4b0-3" vertex="1">
          <mxGeometry x="46" y="272" width="10" height="40" as="geometry"/>
        </mxCell>
        <mxCell id="mHH-US0NP2fztQqdAYXF-5" value="" style="html=1;points=[];perimeter=orthogonalPerimeter;rounded=0;shadow=0;comic=0;labelBackgroundColor=none;strokeWidth=1;fontFamily=Verdana;fontSize=12;align=center;" vertex="1" parent="7baba1c4bc27f4b0-3">
          <mxGeometry x="46" y="117" width="10" height="57" as="geometry"/>
        </mxCell>
        <mxCell id="7baba1c4bc27f4b0-4" value="销帐系统" style="shape=umlLifeline;perimeter=lifelinePerimeter;whiteSpace=wrap;html=1;container=1;collapsible=0;recursiveResize=0;outlineConnect=0;rounded=1;shadow=0;comic=0;labelBackgroundColor=none;strokeWidth=1;fontFamily=Verdana;fontSize=12;align=center;fillColor=#dae8fc;strokeColor=#6c8ebf;" parent="1" vertex="1">
          <mxGeometry x="585" y="80" width="100" height="760" as="geometry"/>
        </mxCell>
        <mxCell id="FsOfHg_qTyJkPoFwxaCK-34" value="" style="html=1;points=[];perimeter=orthogonalPerimeter;rounded=0;shadow=0;comic=0;labelBackgroundColor=none;strokeWidth=1;fontFamily=Verdana;fontSize=12;align=center;" parent="7baba1c4bc27f4b0-4" vertex="1">
          <mxGeometry x="50" y="447" width="10" height="30" as="geometry"/>
        </mxCell>
        <mxCell id="7baba1c4bc27f4b0-8" value="用户端" style="shape=umlLifeline;perimeter=lifelinePerimeter;whiteSpace=wrap;html=1;container=1;collapsible=0;recursiveResize=0;outlineConnect=0;rounded=1;shadow=0;comic=0;labelBackgroundColor=none;strokeWidth=1;fontFamily=Verdana;fontSize=12;align=center;fillColor=#dae8fc;strokeColor=#6c8ebf;" parent="1" vertex="1">
          <mxGeometry x="100" y="80" width="100" height="770" as="geometry"/>
        </mxCell>
        <mxCell id="7baba1c4bc27f4b0-23" value="确认销账前置页面：&lt;br&gt;preConfirmRelief" style="html=1;verticalAlign=bottom;endArrow=block;labelBackgroundColor=none;fontFamily=Verdana;fontSize=12;" parent="1" edge="1">
          <mxGeometry relative="1" as="geometry">
            <mxPoint x="150" y="346.0000000000001" as="sourcePoint"/>
            <mxPoint x="290" y="346" as="targetPoint"/>
          </mxGeometry>
        </mxCell>
        <mxCell id="7baba1c4bc27f4b0-11" value="债务人信息页：&lt;br&gt;getSendIouInfo" style="html=1;verticalAlign=bottom;endArrow=block;entryX=0;entryY=0;labelBackgroundColor=none;fontFamily=Verdana;fontSize=12;edgeStyle=elbowEdgeStyle;elbow=vertical;" parent="1" target="7baba1c4bc27f4b0-10" edge="1">
          <mxGeometry relative="1" as="geometry">
            <mxPoint x="155" y="180" as="sourcePoint"/>
          </mxGeometry>
        </mxCell>
        <mxCell id="FsOfHg_qTyJkPoFwxaCK-2" value="贷出系统" style="shape=umlLifeline;perimeter=lifelinePerimeter;whiteSpace=wrap;html=1;container=1;collapsible=0;recursiveResize=0;outlineConnect=0;rounded=1;shadow=0;comic=0;labelBackgroundColor=none;strokeWidth=1;fontFamily=Verdana;fontSize=12;align=center;fillColor=#dae8fc;strokeColor=#6c8ebf;" parent="1" vertex="1">
          <mxGeometry x="730" y="80" width="100" height="770" as="geometry"/>
        </mxCell>
        <mxCell id="FsOfHg_qTyJkPoFwxaCK-6" value="下发确认销账入口蓝条" style="html=1;verticalAlign=bottom;endArrow=open;dashed=1;endSize=8;labelBackgroundColor=none;fontFamily=Verdana;fontSize=12;" parent="1" edge="1">
          <mxGeometry x="0.3333" y="-25" relative="1" as="geometry">
            <mxPoint x="150" y="280" as="targetPoint"/>
            <mxPoint x="285" y="280" as="sourcePoint"/>
            <Array as="points">
              <mxPoint x="195" y="280"/>
            </Array>
            <mxPoint x="25" y="25" as="offset"/>
          </mxGeometry>
        </mxCell>
        <mxCell id="FsOfHg_qTyJkPoFwxaCK-14" value="返回结果" style="html=1;verticalAlign=bottom;endArrow=open;dashed=1;endSize=8;labelBackgroundColor=none;fontFamily=Verdana;fontSize=12;" parent="1" edge="1">
          <mxGeometry x="0.3333" y="-35" relative="1" as="geometry">
            <mxPoint x="149" y="391" as="targetPoint"/>
            <mxPoint x="284" y="391" as="sourcePoint"/>
            <Array as="points">
              <mxPoint x="249" y="391"/>
              <mxPoint x="229" y="391"/>
              <mxPoint x="194" y="391"/>
            </Array>
            <mxPoint x="35" y="35" as="offset"/>
          </mxGeometry>
        </mxCell>
        <mxCell id="FsOfHg_qTyJkPoFwxaCK-16" value="根据销账id获取销账信息：&lt;br&gt;getWriteOffInfo" style="html=1;verticalAlign=bottom;endArrow=block;labelBackgroundColor=none;fontFamily=Verdana;fontSize=12;entryX=-0.4;entryY=0.1;entryDx=0;entryDy=0;entryPerimeter=0;" parent="1" target="FsOfHg_qTyJkPoFwxaCK-18" edge="1">
          <mxGeometry relative="1" as="geometry">
            <mxPoint x="300" y="357.0000000000001" as="sourcePoint"/>
            <mxPoint x="440" y="357" as="targetPoint"/>
            <mxPoint as="offset"/>
          </mxGeometry>
        </mxCell>
        <mxCell id="FsOfHg_qTyJkPoFwxaCK-17" value="data" style="html=1;verticalAlign=bottom;endArrow=open;dashed=1;endSize=8;labelBackgroundColor=none;fontFamily=Verdana;fontSize=12;" parent="1" edge="1">
          <mxGeometry relative="1" as="geometry">
            <mxPoint x="300" y="386" as="targetPoint"/>
            <mxPoint x="445" y="386" as="sourcePoint"/>
          </mxGeometry>
        </mxCell>
        <mxCell id="FsOfHg_qTyJkPoFwxaCK-19" value="确认销账" style="html=1;verticalAlign=bottom;endArrow=block;labelBackgroundColor=none;fontFamily=Verdana;fontSize=12;edgeStyle=elbowEdgeStyle;elbow=vertical;" parent="1" edge="1">
          <mxGeometry x="0.0485" relative="1" as="geometry">
            <mxPoint x="150" y="422" as="sourcePoint"/>
            <mxPoint x="779.5" y="422.7142857142858" as="targetPoint"/>
            <mxPoint as="offset"/>
          </mxGeometry>
        </mxCell>
        <mxCell id="FsOfHg_qTyJkPoFwxaCK-20" value="确认销账结果" style="html=1;verticalAlign=bottom;endArrow=open;dashed=1;endSize=8;labelBackgroundColor=none;fontFamily=Verdana;fontSize=12;" parent="1" edge="1">
          <mxGeometry relative="1" as="geometry">
            <mxPoint x="150" y="459" as="targetPoint"/>
            <mxPoint x="779.5" y="459" as="sourcePoint"/>
          </mxGeometry>
        </mxCell>
        <mxCell id="FsOfHg_qTyJkPoFwxaCK-21" value="" style="html=1;points=[];perimeter=orthogonalPerimeter;rounded=0;shadow=0;comic=0;labelBackgroundColor=none;strokeWidth=1;fontFamily=Verdana;fontSize=12;align=center;" parent="1" vertex="1">
          <mxGeometry x="780" y="423" width="10" height="33" as="geometry"/>
        </mxCell>
        <mxCell id="FsOfHg_qTyJkPoFwxaCK-25" value="拒绝销账:&lt;br&gt;refuseRelief" style="html=1;verticalAlign=bottom;endArrow=block;labelBackgroundColor=none;fontFamily=Verdana;fontSize=12;" parent="1" edge="1">
          <mxGeometry x="0.1429" relative="1" as="geometry">
            <mxPoint x="150" y="497.0000000000001" as="sourcePoint"/>
            <mxPoint x="290" y="497" as="targetPoint"/>
            <mxPoint as="offset"/>
          </mxGeometry>
        </mxCell>
        <mxCell id="FsOfHg_qTyJkPoFwxaCK-27" value="拒绝result" style="html=1;verticalAlign=bottom;endArrow=open;dashed=1;endSize=8;labelBackgroundColor=none;fontFamily=Verdana;fontSize=12;" parent="1" edge="1">
          <mxGeometry x="0.3333" y="-35" relative="1" as="geometry">
            <mxPoint x="151" y="573" as="targetPoint"/>
            <mxPoint x="286" y="573" as="sourcePoint"/>
            <Array as="points">
              <mxPoint x="251" y="573"/>
              <mxPoint x="231" y="573"/>
              <mxPoint x="196" y="573"/>
            </Array>
            <mxPoint x="35" y="35" as="offset"/>
          </mxGeometry>
        </mxCell>
        <mxCell id="FsOfHg_qTyJkPoFwxaCK-28" value="" style="html=1;points=[];perimeter=orthogonalPerimeter;rounded=0;shadow=0;comic=0;labelBackgroundColor=none;strokeWidth=1;fontFamily=Verdana;fontSize=12;align=center;" parent="1" vertex="1">
          <mxGeometry x="290" y="496" width="10" height="80" as="geometry"/>
        </mxCell>
        <mxCell id="FsOfHg_qTyJkPoFwxaCK-29" value="拒绝销账:refuseWriteOff" style="html=1;verticalAlign=bottom;endArrow=block;labelBackgroundColor=none;fontFamily=Verdana;fontSize=12;" parent="1" edge="1">
          <mxGeometry x="-0.0667" relative="1" as="geometry">
            <mxPoint x="300" y="517" as="sourcePoint"/>
            <mxPoint x="450" y="517" as="targetPoint"/>
            <mxPoint as="offset"/>
          </mxGeometry>
        </mxCell>
        <mxCell id="FsOfHg_qTyJkPoFwxaCK-30" value="拒绝result" style="html=1;verticalAlign=bottom;endArrow=open;dashed=1;endSize=8;labelBackgroundColor=none;fontFamily=Verdana;fontSize=12;" parent="1" edge="1">
          <mxGeometry x="0.3333" y="-35" relative="1" as="geometry">
            <mxPoint x="461" y="557" as="targetPoint"/>
            <mxPoint x="634.5" y="557" as="sourcePoint"/>
            <Array as="points">
              <mxPoint x="561" y="557"/>
              <mxPoint x="541" y="557"/>
              <mxPoint x="506" y="557"/>
            </Array>
            <mxPoint x="35" y="35" as="offset"/>
          </mxGeometry>
        </mxCell>
        <mxCell id="FsOfHg_qTyJkPoFwxaCK-31" value="" style="html=1;points=[];perimeter=orthogonalPerimeter;rounded=0;shadow=0;comic=0;labelBackgroundColor=none;strokeWidth=1;fontFamily=Verdana;fontSize=12;align=center;" parent="1" vertex="1">
          <mxGeometry x="451" y="517" width="10" height="50" as="geometry"/>
        </mxCell>
        <mxCell id="FsOfHg_qTyJkPoFwxaCK-32" value="delDebtCancel" style="html=1;verticalAlign=bottom;endArrow=block;labelBackgroundColor=none;fontFamily=Verdana;fontSize=12;" parent="1" edge="1">
          <mxGeometry x="0.0533" relative="1" as="geometry">
            <mxPoint x="461" y="527" as="sourcePoint"/>
            <mxPoint x="630" y="527" as="targetPoint"/>
            <mxPoint as="offset"/>
          </mxGeometry>
        </mxCell>
        <mxCell id="FsOfHg_qTyJkPoFwxaCK-33" value="拒绝result" style="html=1;verticalAlign=bottom;endArrow=open;dashed=1;endSize=8;labelBackgroundColor=none;fontFamily=Verdana;fontSize=12;" parent="1" edge="1">
          <mxGeometry x="0.3333" y="-35" relative="1" as="geometry">
            <mxPoint x="302" y="564" as="targetPoint"/>
            <mxPoint x="449" y="564" as="sourcePoint"/>
            <Array as="points">
              <mxPoint x="402" y="564"/>
              <mxPoint x="382" y="564"/>
              <mxPoint x="347" y="564"/>
            </Array>
            <mxPoint x="35" y="35" as="offset"/>
          </mxGeometry>
        </mxCell>
        <mxCell id="mHH-US0NP2fztQqdAYXF-3" value="是否有待确认销账" style="html=1;verticalAlign=bottom;endArrow=block;labelBackgroundColor=none;fontFamily=Verdana;fontSize=12;entryX=-0.4;entryY=0.1;entryDx=0;entryDy=0;entryPerimeter=0;" edge="1" parent="1">
          <mxGeometry relative="1" as="geometry">
            <mxPoint x="300" y="201.5" as="sourcePoint"/>
            <mxPoint x="442" y="200.5" as="targetPoint"/>
            <mxPoint as="offset"/>
          </mxGeometry>
        </mxCell>
        <mxCell id="mHH-US0NP2fztQqdAYXF-4" value="data" style="html=1;verticalAlign=bottom;endArrow=open;dashed=1;endSize=8;labelBackgroundColor=none;fontFamily=Verdana;fontSize=12;" edge="1" parent="1">
          <mxGeometry relative="1" as="geometry">
            <mxPoint x="300" y="256.5" as="targetPoint"/>
            <mxPoint x="445" y="256.5" as="sourcePoint"/>
          </mxGeometry>
        </mxCell>
        <mxCell id="mHH-US0NP2fztQqdAYXF-6" value="是否有待确认销账" style="html=1;verticalAlign=bottom;endArrow=block;labelBackgroundColor=none;fontFamily=Verdana;fontSize=12;" edge="1" parent="1" target="7baba1c4bc27f4b0-4">
          <mxGeometry x="0.0846" relative="1" as="geometry">
            <mxPoint x="456" y="208.4999999999999" as="sourcePoint"/>
            <mxPoint x="624" y="208" as="targetPoint"/>
            <mxPoint as="offset"/>
          </mxGeometry>
        </mxCell>
        <mxCell id="mHH-US0NP2fztQqdAYXF-7" value="data" style="html=1;verticalAlign=bottom;endArrow=open;dashed=1;endSize=8;labelBackgroundColor=none;fontFamily=Verdana;fontSize=12;" edge="1" parent="1" source="7baba1c4bc27f4b0-4">
          <mxGeometry relative="1" as="geometry">
            <mxPoint x="461" y="241.9999999999999" as="targetPoint"/>
            <mxPoint x="606" y="241.9999999999999" as="sourcePoint"/>
          </mxGeometry>
        </mxCell>
        <mxCell id="mHH-US0NP2fztQqdAYXF-8" value="" style="html=1;points=[];perimeter=orthogonalPerimeter;rounded=0;shadow=0;comic=0;labelBackgroundColor=none;strokeWidth=1;fontFamily=Verdana;fontSize=12;align=center;" vertex="1" parent="1">
          <mxGeometry x="635" y="207" width="10" height="33" as="geometry"/>
        </mxCell>
      </root>
    </mxGraphModel>
  </diagram>
</mxfile>
